<mxfile host="app.diagrams.net" agent="Mozilla/5.0 (Windows NT 10.0; Win64; x64; rv:131.0) Gecko/20100101 Firefox/131.0" version="24.7.17">
  <diagram name="Page-1" id="VoJw-NflkOjj5ZJhAXec">
    <mxGraphModel dx="880" dy="422" grid="1" gridSize="10" guides="1" tooltips="1" connect="1" arrows="1" fold="1" page="1" pageScale="1" pageWidth="850" pageHeight="1100" math="0" shadow="0">
      <root>
        <mxCell id="0" />
        <mxCell id="1" parent="0" />
        <mxCell id="fIKoYiJk8OIai4AO7cgT-3" value="" style="edgeStyle=orthogonalEdgeStyle;rounded=0;orthogonalLoop=1;jettySize=auto;html=1;" edge="1" parent="1" source="fIKoYiJk8OIai4AO7cgT-1" target="fIKoYiJk8OIai4AO7cgT-2">
          <mxGeometry relative="1" as="geometry" />
        </mxCell>
        <mxCell id="fIKoYiJk8OIai4AO7cgT-1" value="START" style="rounded=1;whiteSpace=wrap;html=1;" vertex="1" parent="1">
          <mxGeometry x="390" y="170" width="120" height="60" as="geometry" />
        </mxCell>
        <mxCell id="fIKoYiJk8OIai4AO7cgT-5" value="" style="edgeStyle=orthogonalEdgeStyle;rounded=0;orthogonalLoop=1;jettySize=auto;html=1;" edge="1" parent="1" source="fIKoYiJk8OIai4AO7cgT-2" target="fIKoYiJk8OIai4AO7cgT-4">
          <mxGeometry relative="1" as="geometry" />
        </mxCell>
        <mxCell id="fIKoYiJk8OIai4AO7cgT-2" value="nilai awal pada seven segment diatur menjadi 0" style="shape=parallelogram;perimeter=parallelogramPerimeter;whiteSpace=wrap;html=1;fixedSize=1;rounded=1;" vertex="1" parent="1">
          <mxGeometry x="390" y="310" width="120" height="60" as="geometry" />
        </mxCell>
        <mxCell id="fIKoYiJk8OIai4AO7cgT-7" value="" style="edgeStyle=orthogonalEdgeStyle;rounded=0;orthogonalLoop=1;jettySize=auto;html=1;" edge="1" parent="1" source="fIKoYiJk8OIai4AO7cgT-4" target="fIKoYiJk8OIai4AO7cgT-6">
          <mxGeometry relative="1" as="geometry" />
        </mxCell>
        <mxCell id="fIKoYiJk8OIai4AO7cgT-4" value="angka pada seven segment ditampilkan sesuai dengan nilai yang ada." style="shape=display;whiteSpace=wrap;html=1;" vertex="1" parent="1">
          <mxGeometry x="382.5" y="420" width="135" height="80" as="geometry" />
        </mxCell>
        <mxCell id="fIKoYiJk8OIai4AO7cgT-9" value="" style="edgeStyle=orthogonalEdgeStyle;rounded=0;orthogonalLoop=1;jettySize=auto;html=1;" edge="1" parent="1" source="fIKoYiJk8OIai4AO7cgT-6" target="fIKoYiJk8OIai4AO7cgT-8">
          <mxGeometry relative="1" as="geometry" />
        </mxCell>
        <mxCell id="fIKoYiJk8OIai4AO7cgT-6" value="nilai seven segment ditambah 1" style="whiteSpace=wrap;html=1;" vertex="1" parent="1">
          <mxGeometry x="390" y="590" width="120" height="60" as="geometry" />
        </mxCell>
        <mxCell id="fIKoYiJk8OIai4AO7cgT-11" value="" style="edgeStyle=orthogonalEdgeStyle;rounded=0;orthogonalLoop=1;jettySize=auto;html=1;" edge="1" parent="1" source="fIKoYiJk8OIai4AO7cgT-8" target="fIKoYiJk8OIai4AO7cgT-10">
          <mxGeometry relative="1" as="geometry" />
        </mxCell>
        <mxCell id="fIKoYiJk8OIai4AO7cgT-8" value="apakah nilai &amp;gt; 9" style="rhombus;whiteSpace=wrap;html=1;" vertex="1" parent="1">
          <mxGeometry x="400" y="720" width="100" height="90" as="geometry" />
        </mxCell>
        <mxCell id="fIKoYiJk8OIai4AO7cgT-10" value="" style="rounded=1;whiteSpace=wrap;html=1;" vertex="1" parent="1">
          <mxGeometry x="390" y="905" width="120" height="60" as="geometry" />
        </mxCell>
      </root>
    </mxGraphModel>
  </diagram>
</mxfile>
